HIERARCHY
ROOT Hips
{
  OFFSET -4.35178 90.3298 111.633
  CHANNELS 6 Xposition Yposition Zposition Zrotation Xrotation Yrotation
  JOINT LeftUpLeg
  {
    OFFSET 0.103456 1.85784 10.5485
    CHANNELS 6 Xposition Yposition Zposition Zrotation Xrotation Yrotation
    JOINT LeftLeg
    {
      OFFSET 43.5 -4.2e-05 0
      CHANNELS 6 Xposition Yposition Zposition Zrotation Xrotation Yrotation
      JOINT LeftFoot
      {
        OFFSET 42.3722 1.9e-05 0
        CHANNELS 6 Xposition Yposition Zposition Zrotation Xrotation Yrotation
        JOINT LeftToe
        {
          OFFSET 17.3 0 0
          CHANNELS 6 Xposition Yposition Zposition Zrotation Xrotation Yrotation
          End Site
          {
            OFFSET 0 0 0
          }
        }
      }
    }
  }
  JOINT RightUpLeg
  {
    OFFSET 0.103456 1.85782 -10.5485
    CHANNELS 6 Xposition Yposition Zposition Zrotation Xrotation Yrotation
    JOINT RightLeg
    {
      OFFSET 43.5 -2.7e-05 0
      CHANNELS 6 Xposition Yposition Zposition Zrotation Xrotation Yrotation
      JOINT RightFoot
      {
        OFFSET 42.3723 0 0
        CHANNELS 6 Xposition Yposition Zposition Zrotation Xrotation Yrotation
        JOINT RightToe
        {
          OFFSET 17.3 0 1.7e-05
          CHANNELS 6 Xposition Yposition Zposition Zrotation Xrotation Yrotation
          End Site
          {
            OFFSET 0 0 0
          }
        }
      }
    }
  }
  JOINT Spine
  {
    OFFSET 6.90197 -2.60373 0
    CHANNELS 6 Xposition Yposition Zposition Zrotation Xrotation Yrotation
    JOINT Spine1
    {
      OFFSET 12.5881 0 0
      CHANNELS 6 Xposition Yposition Zposition Zrotation Xrotation Yrotation
      JOINT Spine2
      {
        OFFSET 12.3432 -1.8e-05 0
        CHANNELS 6 Xposition Yposition Zposition Zrotation Xrotation Yrotation
        JOINT Neck
        {
          OFFSET 25.8329 2.3e-05 0
          CHANNELS 6 Xposition Yposition Zposition Zrotation Xrotation Yrotation
          JOINT Head
          {
            OFFSET 11.7666 0 0
            CHANNELS 6 Xposition Yposition Zposition Zrotation Xrotation Yrotation
            End Site
            {
              OFFSET 0 0 0
            }
          }
        }
        JOINT LeftShoulder
        {
          OFFSET 19.7459 -1.48035 6.0001
          CHANNELS 6 Xposition Yposition Zposition Zrotation Xrotation Yrotation
          JOINT LeftArm
          {
            OFFSET 11.2841 1.8e-05 -2e-05
            CHANNELS 6 Xposition Yposition Zposition Zrotation Xrotation Yrotation
            JOINT LeftForeArm
            {
              OFFSET 33 -1.3e-05 1.9e-05
              CHANNELS 6 Xposition Yposition Zposition Zrotation Xrotation Yrotation
              JOINT LeftHand
              {
                OFFSET 25.2 3.2e-05 1.1e-05
                CHANNELS 6 Xposition Yposition Zposition Zrotation Xrotation Yrotation
                End Site
                {
                  OFFSET 0 0 0
                }
              }
            }
          }
        }
        JOINT RightShoulder
        {
          OFFSET 19.7461 -1.48036 -6.00008
          CHANNELS 6 Xposition Yposition Zposition Zrotation Xrotation Yrotation
          JOINT RightArm
          {
            OFFSET 11.2841 0 0
            CHANNELS 6 Xposition Yposition Zposition Zrotation Xrotation Yrotation
            JOINT RightForeArm
            {
              OFFSET 33.0001 1.6e-05 0
              CHANNELS 6 Xposition Yposition Zposition Zrotation Xrotation Yrotation
              JOINT RightHand
              {
                OFFSET 25.1998 0.000123 0.000432
                CHANNELS 6 Xposition Yposition Zposition Zrotation Xrotation Yrotation
                End Site
                {
                  OFFSET 0 0 0
                }
              }
            }
          }
        }
      }
    }
  }
}
MOTION
Frames:	5
Frame Time:	0.0333333
17.8063 91.8545 -1.93303 1.99781 84.476 89.8321 0.103456 1.85784 10.5485 10.9598 4.77804 179.034 43.5 -4.2e-05 1e-05 -5.52328 -8.95787 -1.64936 42.3722 1.9e-05 0 75.4486 -0.31722 3.50689 17.3 -8.88178e-16 3e-06 21.4546 -1e-06 0.003093 0.103456 1.85782 -10.5485 4.29961 -11.505 174.654 43.5 -2.7e-05 4e-06 -15.9055 10.5224 2.28475 42.3723 0 1e-05 81.0608 8.1273 -4.82939 17.3 -6e-06 1.7e-05 21.4546 -1.9e-05 -0.003116 6.90197 -2.60373 -3e-06 6.97203 -0.175336 -0.397401 12.5881 1e-05 8e-06 3.93455 -0.350239 -0.719697 12.3432 -1.8e-05 -5e-06 3.62372 -0.33749 -0.687917 25.8329 2.3e-05 7e-06 5.21226 -3.15425 -5.69023 11.7666 -8e-06 -6e-06 -16.3293 -8.10536 11.0672 19.7459 -1.48035 6.0001 176.552 -2.70117 -94.0185 11.2841 1.8e-05 -2e-05 10.1789 -16.072 12.8964 33 -1.3e-05 1.9e-05 -20.3681 -3.54243 -17.9265 25.2 3.2e-05 1.1e-05 14.4718 28.6271 -4.87387 19.7461 -1.48036 -6.00008 178.706 6.12238 91.6934 11.2841 0 -1e-06 -2.20282 5.52381 -6.69644 33.0001 1.6e-05 -1e-06 -19.9852 1.27662 15.4092 25.1998 0.000123 0.000432 10.0997 -13.8337 3.06069 
17.8048 91.8554 -1.93628 2.618 84.4693 89.1901 0.103456 1.85784 10.5485 10.9748 4.7742 179.058 43.5 -4.2e-05 1e-05 -5.57808 -8.9683 -1.6587 42.3722 1.9e-05 3.55271e-15 75.4834 -0.367497 3.53489 17.3 -1.77636e-15 3e-06 21.4546 -1e-06 0.003093 0.103456 1.85782 -10.5485 4.30252 -11.5281 174.679 43.5 -2.7e-05 4e-06 -15.9195 10.5028 2.28461 42.3723 0 1e-05 81.0605 8.09665 -4.80722 17.3 -6e-06 1.7e-05 21.4546 -1.9e-05 -0.003116 6.90197 -2.60373 -3e-06 6.98373 -0.168597 -0.397401 12.5881 1e-05 8e-06 3.9578 -0.336188 -0.719696 12.3432 -1.8e-05 -5e-06 3.64674 -0.32281 -0.687916 25.8329 2.3e-05 7e-06 5.21502 -3.11981 -5.70247 11.7666 -8e-06 -6e-06 -16.2678 -8.06943 11.0587 19.7459 -1.48035 6.0001 176.526 -2.70458 -94.0399 11.2841 1.8e-05 -2e-05 10.1426 -16.0652 12.8055 33 -1.3e-05 1.9e-05 -20.4142 -3.54182 -17.9083 25.2 3.2e-05 1.1e-05 14.41 28.6234 -4.85273 19.7461 -1.48036 -6.00008 178.698 6.14289 91.6692 11.2841 0 -1e-06 -2.18323 5.4742 -6.62462 33.0001 1.6e-05 -1e-06 -20.019 1.28131 15.4093 25.1998 0.000123 0.000432 10.0977 -13.8439 3.06107 
17.8073 91.8497 -1.93581 3.12476 84.4565 88.6793 0.103456 1.85784 10.5485 10.9477 4.78877 179.07 43.5 -4.2e-05 1e-05 -5.67451 -8.9703 -1.66611 42.3722 1.9e-05 -3.55271e-15 75.4857 -0.341546 3.57276 17.3 8.88178e-16 3e-06 21.4546 -1e-06 0.003093 0.103456 1.85782 -10.5485 4.30409 -11.5124 174.678 43.5 -2.7e-05 4e-06 -15.9444 10.4937 2.28454 42.3723 0 1e-05 81.08 8.09169 -4.78506 17.3 -6e-06 1.7e-05 21.4546 -1.9e-05 -0.003116 6.90197 -2.60373 -3e-06 6.9959 -0.16322 -0.397401 12.5881 1e-05 8e-06 3.98206 -0.325501 -0.723688 12.3432 -1.8e-05 -5e-06 3.67085 -0.312028 -0.692523 25.8329 2.3e-05 7e-06 5.21739 -3.08196 -5.72824 11.7666 -8e-06 -6e-06 -16.187 -8.01332 11.0738 19.7459 -1.48035 6.0001 176.55 -2.70987 -94.0093 11.2841 1.8e-05 -2e-05 10.1068 -15.9703 12.6749 33 -1.3e-05 1.9e-05 -20.4491 -3.60098 -17.8608 25.2 3.2e-05 1.1e-05 14.4564 28.6134 -4.89921 19.7461 -1.48036 -6.00008 178.669 6.18188 91.6628 11.2841 0 -1e-06 -2.21646 5.44814 -6.58622 33.0001 1.6e-05 -1e-06 -20.0299 1.25957 15.4065 25.1998 0.000123 0.000432 10.1181 -13.8759 3.08956 
17.8114 91.8431 -1.9264 3.88839 84.4495 87.9185 0.103456 1.85784 10.5485 10.9671 4.79035 179.043 43.5 -4.2e-05 1e-05 -5.68776 -8.98844 -1.66031 42.3722 1.9e-05 0 75.4637 -0.34139 3.62458 17.3 8.88178e-16 3e-06 21.4546 -1e-06 0.003093 0.103456 1.85782 -10.5485 4.28198 -11.4676 174.665 43.5 -2.7e-05 4e-06 -15.9871 10.4791 2.28443 42.3723 0 1e-05 81.0836 8.07646 -4.78361 17.3 -6e-06 1.7e-05 21.4546 -1.9e-05 -0.003116 6.90197 -2.60373 -3e-06 7.00251 -0.157329 -0.397401 12.5881 1e-05 8e-06 3.99519 -0.314028 -0.730448 12.3432 -1.8e-05 -5e-06 3.68384 -0.300799 -0.699954 25.8329 2.3e-05 7e-06 5.22009 -3.03918 -5.75773 11.7666 -8e-06 -6e-06 -16.079 -7.94695 11.0848 19.7459 -1.48035 6.0001 176.517 -2.71307 -94.0404 11.2841 1.8e-05 -2e-05 10.1402 -16.0293 12.6979 33 -1.3e-05 1.9e-05 -20.4117 -3.61122 -17.8873 25.2 3.2e-05 1.1e-05 14.48 28.6089 -4.91772 19.7461 -1.48036 -6.00008 178.655 6.20224 91.6489 11.2841 3.55271e-15 -1e-06 -2.26011 5.41349 -6.54914 33.0001 1.6e-05 -1e-06 -20.0364 1.24131 15.3958 25.1998 0.000123 0.000432 10.1041 -13.8927 3.0934 
17.8133 91.8365 -1.89821 4.58571 84.4496 87.2263 0.103456 1.85784 10.5485 10.9975 4.78722 179.018 43.5 -4.2e-05 1e-05 -5.64597 -9.01599 -1.65141 42.3722 1.9e-05 7.10543e-15 75.4969 -0.399345 3.62034 17.3 1.77636e-15 3e-06 21.4546 -1e-06 0.003093 0.103456 1.85782 -10.5485 4.26159 -11.4436 174.653 43.5 -2.7e-05 4e-06 -16.023 10.4708 2.28437 42.3723 0 1e-05 81.105 8.05832 -4.77513 17.3 -6e-06 1.7e-05 21.4546 -1.9e-05 -0.003116 6.90197 -2.60373 -3e-06 7.00338 -0.152513 -0.397401 12.5881 1e-05 8e-06 3.99682 -0.304594 -0.733838 12.3432 -1.8e-05 -5e-06 3.68532 -0.29156 -0.70392 25.8329 2.3e-05 7e-06 5.22328 -3.00081 -5.77061 11.7666 -8e-06 -6e-06 -15.9476 -7.88669 11.0919 19.7459 -1.48035 6.0001 176.505 -2.71542 -94.0522 11.2841 1.8e-05 -2e-05 10.1488 -16.0549 12.7342 33 -1.3e-05 1.9e-05 -20.4018 -3.58848 -17.8807 25.2 3.2e-05 1.1e-05 14.4291 28.6143 -4.87169 19.7461 -1.48036 -6.00008 178.637 6.2169 91.6426 11.2841 -3.55271e-15 -1e-06 -2.26774 5.41357 -6.53221 33.0001 1.6e-05 -1e-06 -20.0769 1.24488 15.391 25.1998 0.000123 0.000432 10.0914 -13.8779 3.0835 
